<svg width="33" height="33" viewBox="0 0 33 33" fill="none" xmlns="http://www.w3.org/2000/svg">
<path d="M13.7693 6.78966C13.532 6.12985 13.2924 5.46459 13.2881 5.45588C13.1738 5.20001 12.9092 5.03887 12.6305 5.06718C12.4541 5.08133 8.28068 5.44064 5.60658 7.59102C4.20856 8.88234 1.41687 16.4321 1.41687 22.9595C1.41687 23.0749 1.44627 23.187 1.50397 23.2872C3.43224 26.6734 8.68899 27.5597 9.88667 27.5978C9.89429 27.5989 9.90082 27.5989 9.90736 27.5989C10.1186 27.5989 10.3167 27.4976 10.443 27.3267L11.7387 25.5715C9.59814 25.246 9.21161 24.8213 9.12124 24.7549C8.63781 24.3989 8.28068 23.9002 8.71403 23.2709C9.0472 22.782 9.74621 22.6209 10.2819 22.8963C10.8307 23.1522 12.2995 23.9753 16.6601 23.9536C20.9903 23.9405 22.8913 23.0335 22.9186 23.0139C23.6459 22.6862 24.2131 22.8212 24.567 23.3068C24.9884 23.9677 24.6879 24.4152 24.2066 24.7702C24.1162 24.8366 23.8974 25.0228 21.5978 25.5672L22.8772 27.3256C23.0024 27.4976 23.2016 27.5978 23.4129 27.5978C23.4205 27.5978 23.427 27.5978 23.4336 27.5967C24.6323 27.5586 29.8891 26.6723 31.8163 23.2861C31.874 23.1859 31.9034 23.0738 31.9034 22.9584C31.9034 16.4321 29.1117 8.88234 27.6788 7.56272C25.0395 5.44173 20.8662 5.08242 20.6898 5.06718C20.411 5.04322 20.1465 5.2011 20.0321 5.45588C20.0278 5.46459 19.7948 6.14074 19.5694 6.79293C19.5694 6.79293 17.7936 6.53271 16.6601 6.53271C15.5267 6.53271 13.7693 6.78966 13.7693 6.78966ZM12.3049 20.6871C11.1018 20.6871 10.1273 19.2358 10.1273 17.4436C10.1273 15.6514 11.1018 14.2001 12.3049 14.2001C13.5124 14.0204 14.4564 15.6514 14.4825 17.4436C14.4825 19.2358 13.508 20.6871 12.3049 20.6871ZM21.0153 20.6871C19.8122 20.6871 18.8377 19.226 18.8377 17.424C18.8377 15.622 19.8122 14.1609 21.0153 14.1609C22.2185 14.1609 23.1929 15.622 23.1929 17.424C23.1929 19.226 22.2185 20.6871 21.0153 20.6871Z" fill="#E4E2E2"/>
</svg>
