<svg width="31" height="27" viewBox="0 0 31 27" fill="none" xmlns="http://www.w3.org/2000/svg">
<path d="M17.4517 2H7.45166C4.69024 2 2.45166 4.23858 2.45166 7V17C2.45166 19.7614 4.69024 22 7.45166 22H17.4517C20.2131 22 22.4517 19.7614 22.4517 17V7C22.4517 4.23858 20.2131 2 17.4517 2Z" stroke="#E4E2E2" stroke-width="2" stroke-linecap="round" stroke-linejoin="round"/>
<path d="M16.4516 11.3701C16.575 12.2023 16.4329 13.0523 16.0454 13.7991C15.6579 14.5459 15.0448 15.1515 14.2932 15.5297C13.5417 15.908 12.6901 16.0397 11.8594 15.906C11.0287 15.7723 10.2614 15.3801 9.66645 14.7852C9.07153 14.1903 8.67934 13.4229 8.54568 12.5923C8.41201 11.7616 8.54368 10.91 8.92194 10.1584C9.3002 9.40691 9.9058 8.7938 10.6526 8.4063C11.3994 8.0188 12.2494 7.87665 13.0816 8.00006C13.9305 8.12594 14.7165 8.52152 15.3233 9.12836C15.9301 9.73521 16.3257 10.5211 16.4516 11.3701Z" stroke="#E4E2E2" stroke-width="2" stroke-linecap="round" stroke-linejoin="round"/>
<path d="M17.9517 6.5H17.9617" stroke="#E4E2E2" stroke-width="2" stroke-linecap="round" stroke-linejoin="round"/>
</svg>
