<svg width="34" height="33" viewBox="0 0 34 33" fill="none" xmlns="http://www.w3.org/2000/svg">
<path d="M31.1505 7.55293C30.1086 8.01567 28.9893 8.32707 27.8145 8.46753C29.0143 7.74891 29.9344 6.61112 30.3677 5.25447C29.2462 5.91973 28.0028 6.40315 26.6788 6.66447C25.6194 5.53538 24.1103 4.82983 22.4401 4.82983C19.2325 4.82983 16.6324 7.43099 16.6324 10.6375C16.6324 11.0926 16.6847 11.5369 16.7827 11.9604C11.956 11.7187 7.67704 9.40607 4.81131 5.89142C4.31264 6.74939 4.02628 7.74674 4.02628 8.81268C4.02628 10.827 5.05085 12.605 6.60892 13.6459C5.65731 13.6154 4.76122 13.3541 3.97838 12.9196C3.97838 12.9447 3.97838 12.9675 3.97838 12.9926C3.97838 15.8071 5.9796 18.1546 8.63736 18.687C8.15067 18.8199 7.63675 18.8906 7.10651 18.8906C6.73305 18.8906 6.3683 18.8536 6.01444 18.7872C6.75373 21.0944 8.89868 22.7744 11.4399 22.8212C9.45288 24.3793 6.94863 25.308 4.22662 25.308C3.75844 25.308 3.2957 25.2808 2.84058 25.2264C5.41124 26.8737 8.46316 27.8352 11.7437 27.8352C22.4271 27.8352 28.2674 18.9854 28.2674 11.3104C28.2674 11.0589 28.2619 10.8085 28.2511 10.5591C29.3867 9.73925 30.372 8.71686 31.1505 7.55293Z" fill="#F25AC9"/>
</svg>
